<svg class="animated" id="freepik_stories-checking-boxes" xmlns="http://www.w3.org/2000/svg" xmlns:xlink="http://www.w3.org/1999/xlink" viewBox="0 0 500 500" version="1.1" xmlns:svgjs="http://svgjs.com/svgjs"><style>svg#freepik_stories-checking-boxes:not(.animated) .animable {opacity: 0;}svg#freepik_stories-checking-boxes.animated #freepik--boxes-2--inject-221 {animation: 1.6s 1 forwards cubic-bezier(.36,-0.01,.5,1.38) fadeIn;animation-delay: 0s;}svg#freepik_stories-checking-boxes.animated #freepik--Character--inject-221 {animation: 1.5s Infinite  linear floating;animation-delay: 0s;}            @keyframes fadeIn {                0% {                    opacity: 0;                }                100% {                    opacity: 1;                }            }                    @keyframes floating {                0% {                    opacity: 1;                    transform: translateY(0px);                }                50% {                    transform: translateY(-10px);                }                100% {                    opacity: 1;                    transform: translateY(0px);                }            }        </style><g id="freepik--background-simple--inject-221" class="animable" style="transform-origin: 250.297px 257.414px;"><path d="M167.19,71.92S91.42,110.52,53.63,170,18.83,306,64.75,362.8s133.69,49.34,207.18,85.32,154.57,28.57,189.32-47.66S443.6,295.74,434.6,207.52,346.07-9.88,167.19,71.92Z" style="fill: rgb(250, 129, 47); transform-origin: 250.297px 257.414px;" id="ele7ngkli28tu" class="animable"></path><g id="el2bis81yoj08"><path d="M167.19,71.92S91.42,110.52,53.63,170,18.83,306,64.75,362.8s133.69,49.34,207.18,85.32,154.57,28.57,189.32-47.66S443.6,295.74,434.6,207.52,346.07-9.88,167.19,71.92Z" style="fill: rgb(255, 255, 255); opacity: 0.7; transform-origin: 250.297px 257.414px;" class="animable"></path></g></g><g id="freepik--boxes-2--inject-221" class="animable animator-active" style="transform-origin: 249px 247.84px;"><rect x="85.17" y="123" width="85.88" height="77.99" style="fill: rgb(250, 129, 47); transform-origin: 128.11px 161.995px;" id="el0075dr2zf1596" class="animable"></rect><g style="clip-path: url(&quot;#freepik--clip-path--inject-221&quot;); transform-origin: 128.11px 161.995px;" id="elk46m31hg5hm" class="animable"><g id="elmjfzy4zb0m"><rect x="85.17" y="123" width="85.88" height="77.99" style="opacity: 0.37; transform-origin: 128.11px 161.995px;" class="animable"></rect></g></g><rect x="85.17" y="123" width="61.2" height="77.99" style="fill: rgb(250, 129, 47); transform-origin: 115.77px 161.995px;" id="elydvnm53zqub" class="animable"></rect><rect x="108.83" y="123" width="13.15" height="21.77" style="fill: rgb(255, 255, 255); transform-origin: 115.405px 133.885px;" id="el7tagujgh5pe" class="animable"></rect><rect x="125.34" y="151.13" width="15.24" height="7.78" style="fill: rgb(255, 255, 255); transform-origin: 132.96px 155.02px;" id="elyqbfgsupr5a" class="animable"></rect><g id="el9ygevd1kgtc"><rect x="116.51" y="176.75" width="16.18" height="9.64" style="fill: rgb(255, 255, 255); transform-origin: 124.6px 181.57px; transform: rotate(13.9deg);" class="animable"></rect></g><rect x="149.17" y="123" width="85.88" height="77.99" style="fill: rgb(250, 129, 47); transform-origin: 192.11px 161.995px;" id="elu7ctp75uhna" class="animable"></rect><g style="clip-path: url(&quot;#freepik--clip-path-2--inject-221&quot;); transform-origin: 192.11px 161.995px;" id="ell7p6xdfmaja" class="animable"><g id="elq4qk3j8bmub"><rect x="149.17" y="123" width="85.88" height="77.99" style="opacity: 0.37; transform-origin: 192.11px 161.995px;" class="animable"></rect></g></g><rect x="149.17" y="123" width="61.2" height="77.99" style="fill: rgb(250, 129, 47); transform-origin: 179.77px 161.995px;" id="elyyvaoyuszn" class="animable"></rect><rect x="172.83" y="123" width="13.15" height="21.77" style="fill: rgb(255, 255, 255); transform-origin: 179.405px 133.885px;" id="elju5z2qy3y0m" class="animable"></rect><rect x="189.34" y="151.13" width="15.24" height="7.78" style="fill: rgb(255, 255, 255); transform-origin: 196.96px 155.02px;" id="elktfng2iwv0a" class="animable"></rect><g id="ele5ux68t83tb"><rect x="180.51" y="176.75" width="16.18" height="9.64" style="fill: rgb(255, 255, 255); transform-origin: 188.6px 181.57px; transform: rotate(13.9deg);" class="animable"></rect></g><rect x="213.17" y="123" width="85.88" height="77.99" style="fill: rgb(250, 129, 47); transform-origin: 256.11px 161.995px;" id="elyls0ztmn59b" class="animable"></rect><g style="clip-path: url(&quot;#freepik--clip-path-3--inject-221&quot;); transform-origin: 256.11px 161.995px;" id="el7m9c0rdxcrj" class="animable"><g id="elho61ni32y6"><rect x="213.17" y="123" width="85.88" height="77.99" style="opacity: 0.37; transform-origin: 256.11px 161.995px;" class="animable"></rect></g></g><rect x="213.17" y="123" width="61.2" height="77.99" style="fill: rgb(250, 129, 47); transform-origin: 243.77px 161.995px;" id="elx7dmull8ajt" class="animable"></rect><rect x="236.83" y="123" width="13.15" height="21.77" style="fill: rgb(255, 255, 255); transform-origin: 243.405px 133.885px;" id="elj7ae3gdfogj" class="animable"></rect><rect x="253.34" y="151.13" width="15.24" height="7.78" style="fill: rgb(255, 255, 255); transform-origin: 260.96px 155.02px;" id="elaprbpfup0c" class="animable"></rect><g id="elj2elzouqzte"><rect x="244.51" y="176.75" width="16.18" height="9.64" style="fill: rgb(255, 255, 255); transform-origin: 252.6px 181.57px; transform: rotate(13.9deg);" class="animable"></rect></g><rect x="277.17" y="123" width="85.88" height="77.99" style="fill: rgb(250, 129, 47); transform-origin: 320.11px 161.995px;" id="elk77pn53amq" class="animable"></rect><g style="clip-path: url(&quot;#freepik--clip-path-4--inject-221&quot;); transform-origin: 320.11px 161.995px;" id="el7keq1b4p5ob" class="animable"><g id="elm70qtgcarb"><rect x="277.17" y="123" width="85.88" height="77.99" style="opacity: 0.37; transform-origin: 320.11px 161.995px;" class="animable"></rect></g></g><rect x="277.17" y="123" width="61.2" height="77.99" style="fill: rgb(250, 129, 47); transform-origin: 307.77px 161.995px;" id="elsem37cr2hts" class="animable"></rect><rect x="300.83" y="123" width="13.15" height="21.77" style="fill: rgb(255, 255, 255); transform-origin: 307.405px 133.885px;" id="elar0cx7jl90g" class="animable"></rect><rect x="317.34" y="151.13" width="15.24" height="7.78" style="fill: rgb(255, 255, 255); transform-origin: 324.96px 155.02px;" id="elglf7gjn1wy" class="animable"></rect><g id="elinaglddlrj"><rect x="308.51" y="176.75" width="16.18" height="9.64" style="fill: rgb(255, 255, 255); transform-origin: 316.6px 181.57px; transform: rotate(13.9deg);" class="animable"></rect></g><rect x="85.17" y="230" width="85.88" height="77.99" style="fill: rgb(250, 129, 47); transform-origin: 128.11px 268.995px;" id="elie5ul7z0ere" class="animable"></rect><g style="clip-path: url(&quot;#freepik--clip-path-5--inject-221&quot;); transform-origin: 128.11px 268.995px;" id="ela4ramzodwwm" class="animable"><g id="elzn6zxb2dt2n"><rect x="85.17" y="230" width="85.88" height="77.99" style="opacity: 0.37; transform-origin: 128.11px 268.995px;" class="animable"></rect></g></g><rect x="85.17" y="230" width="61.2" height="77.99" style="fill: rgb(250, 129, 47); transform-origin: 115.77px 268.995px;" id="elv039wjgvre" class="animable"></rect><rect x="108.83" y="230" width="13.15" height="21.77" style="fill: rgb(255, 255, 255); transform-origin: 115.405px 240.885px;" id="ele9o4hzn1nxp" class="animable"></rect><rect x="125.34" y="258.13" width="15.24" height="7.78" style="fill: rgb(255, 255, 255); transform-origin: 132.96px 262.02px;" id="el5ayjuqgjrwa" class="animable"></rect><g id="el1d8kfh80kvj"><rect x="116.51" y="283.75" width="16.18" height="9.64" style="fill: rgb(255, 255, 255); transform-origin: 124.6px 288.57px; transform: rotate(13.9deg);" class="animable"></rect></g><rect x="149.17" y="230" width="85.88" height="77.99" style="fill: rgb(250, 129, 47); transform-origin: 192.11px 268.995px;" id="elazpq3qpl41" class="animable"></rect><g style="clip-path: url(&quot;#freepik--clip-path-6--inject-221&quot;); transform-origin: 192.11px 268.995px;" id="el9hplhqcsuv7" class="animable"><g id="elgpr13c9ww1f"><rect x="149.17" y="230" width="85.88" height="77.99" style="opacity: 0.37; transform-origin: 192.11px 268.995px;" class="animable"></rect></g></g><rect x="149.17" y="230" width="61.2" height="77.99" style="fill: rgb(250, 129, 47); transform-origin: 179.77px 268.995px;" id="eliee66l3l1eq" class="animable"></rect><rect x="172.83" y="230" width="13.15" height="21.77" style="fill: rgb(255, 255, 255); transform-origin: 179.405px 240.885px;" id="elyikep2m845" class="animable"></rect><rect x="189.34" y="258.13" width="15.24" height="7.78" style="fill: rgb(255, 255, 255); transform-origin: 196.96px 262.02px;" id="el6zffz4f8c2r" class="animable"></rect><g id="elgo7qag5ndl"><rect x="180.51" y="283.75" width="16.18" height="9.64" style="fill: rgb(255, 255, 255); transform-origin: 188.6px 288.57px; transform: rotate(13.9deg);" class="animable"></rect></g><rect x="213.17" y="230" width="85.88" height="77.99" style="fill: rgb(250, 129, 47); transform-origin: 256.11px 268.995px;" id="elup5gydo5yz" class="animable"></rect><g style="clip-path: url(&quot;#freepik--clip-path-7--inject-221&quot;); transform-origin: 256.11px 268.995px;" id="eliagwc8n0yqa" class="animable"><g id="elyeosrfa3tek"><rect x="213.17" y="230" width="85.88" height="77.99" style="opacity: 0.37; transform-origin: 256.11px 268.995px;" class="animable"></rect></g></g><rect x="213.17" y="230" width="61.2" height="77.99" style="fill: rgb(250, 129, 47); transform-origin: 243.77px 268.995px;" id="elrkvb8u7763k" class="animable"></rect><rect x="236.83" y="230" width="13.15" height="21.77" style="fill: rgb(255, 255, 255); transform-origin: 243.405px 240.885px;" id="elf3y6kt9r7aq" class="animable"></rect><rect x="253.34" y="258.13" width="15.24" height="7.78" style="fill: rgb(255, 255, 255); transform-origin: 260.96px 262.02px;" id="elmblevjnhwpr" class="animable"></rect><g id="elpr2usgf44ss"><rect x="244.51" y="283.75" width="16.18" height="9.64" style="fill: rgb(255, 255, 255); transform-origin: 252.6px 288.57px; transform: rotate(13.9deg);" class="animable"></rect></g><rect x="277.17" y="230" width="85.88" height="77.99" style="fill: rgb(250, 129, 47); transform-origin: 320.11px 268.995px;" id="elkuof8i7frmm" class="animable"></rect><g style="clip-path: url(&quot;#freepik--clip-path-8--inject-221&quot;); transform-origin: 320.11px 268.995px;" id="elqpcs5wdcob" class="animable"><g id="eltp20gqs49ji"><rect x="277.17" y="230" width="85.88" height="77.99" style="opacity: 0.37; transform-origin: 320.11px 268.995px;" class="animable"></rect></g></g><rect x="277.17" y="230" width="61.2" height="77.99" style="fill: rgb(250, 129, 47); transform-origin: 307.77px 268.995px;" id="elav7q9zjkau5" class="animable"></rect><rect x="300.83" y="230" width="13.15" height="21.77" style="fill: rgb(255, 255, 255); transform-origin: 307.405px 240.885px;" id="elwm8epef1fws" class="animable"></rect><rect x="317.34" y="258.13" width="15.24" height="7.78" style="fill: rgb(255, 255, 255); transform-origin: 324.96px 262.02px;" id="el1mhd7lxfsjk" class="animable"></rect><g id="eljb0s7mwzh0i"><rect x="308.51" y="283.75" width="16.18" height="9.64" style="fill: rgb(255, 255, 255); transform-origin: 316.6px 288.57px; transform: rotate(13.9deg);" class="animable"></rect></g><rect x="85.17" y="337" width="85.88" height="77.99" style="fill: rgb(250, 129, 47); transform-origin: 128.11px 375.995px;" id="elnldtzxevorp" class="animable"></rect><g style="clip-path: url(&quot;#freepik--clip-path-9--inject-221&quot;); transform-origin: 128.11px 375.995px;" id="elnp1em6inh5" class="animable"><g id="elxre6z4mlt9"><rect x="85.17" y="337" width="85.88" height="77.99" style="opacity: 0.37; transform-origin: 128.11px 375.995px;" class="animable"></rect></g></g><rect x="85.17" y="337" width="61.2" height="77.99" style="fill: rgb(250, 129, 47); transform-origin: 115.77px 375.995px;" id="elvosrhehgbpa" class="animable"></rect><rect x="108.83" y="337" width="13.15" height="21.77" style="fill: rgb(255, 255, 255); transform-origin: 115.405px 347.885px;" id="eldy3s13hgl88" class="animable"></rect><rect x="125.34" y="365.13" width="15.24" height="7.78" style="fill: rgb(255, 255, 255); transform-origin: 132.96px 369.02px;" id="elh82qdjpguov" class="animable"></rect><g id="elzz04iuhlgcf"><rect x="116.51" y="390.75" width="16.18" height="9.64" style="fill: rgb(255, 255, 255); transform-origin: 124.6px 395.57px; transform: rotate(13.9deg);" class="animable"></rect></g><rect x="149.17" y="337" width="85.88" height="77.99" style="fill: rgb(250, 129, 47); transform-origin: 192.11px 375.995px;" id="elz2hs4chh3w" class="animable"></rect><g style="clip-path: url(&quot;#freepik--clip-path-10--inject-221&quot;); transform-origin: 192.11px 375.995px;" id="el87yjuyzybu7" class="animable"><g id="elwvw35so289"><rect x="149.17" y="337" width="85.88" height="77.99" style="opacity: 0.37; transform-origin: 192.11px 375.995px;" class="animable"></rect></g></g><rect x="149.17" y="337" width="61.2" height="77.99" style="fill: rgb(250, 129, 47); transform-origin: 179.77px 375.995px;" id="elxlawx5d1yca" class="animable"></rect><rect x="172.83" y="337" width="13.15" height="21.77" style="fill: rgb(255, 255, 255); transform-origin: 179.405px 347.885px;" id="elpsu5n9m0wcp" class="animable"></rect><rect x="189.34" y="365.13" width="15.24" height="7.78" style="fill: rgb(255, 255, 255); transform-origin: 196.96px 369.02px;" id="elexkyn0wuv9" class="animable"></rect><g id="el0k5p1flan3y"><rect x="180.51" y="390.75" width="16.18" height="9.64" style="fill: rgb(255, 255, 255); transform-origin: 188.6px 395.57px; transform: rotate(13.9deg);" class="animable"></rect></g><rect x="213.17" y="337" width="85.88" height="77.99" style="fill: rgb(250, 129, 47); transform-origin: 256.11px 375.995px;" id="elep8nt1uk8av" class="animable"></rect><g style="clip-path: url(&quot;#freepik--clip-path-11--inject-221&quot;); transform-origin: 256.11px 375.995px;" id="el8rxcv5hmhuf" class="animable"><g id="elnie5zickvsj"><rect x="213.17" y="337" width="85.88" height="77.99" style="opacity: 0.37; transform-origin: 256.11px 375.995px;" class="animable"></rect></g></g><rect x="213.17" y="337" width="61.2" height="77.99" style="fill: rgb(250, 129, 47); transform-origin: 243.77px 375.995px;" id="el6xayqwbvryu" class="animable"></rect><rect x="236.83" y="337" width="13.15" height="21.77" style="fill: rgb(255, 255, 255); transform-origin: 243.405px 347.885px;" id="elvtne4b2gixd" class="animable"></rect><rect x="253.34" y="365.13" width="15.24" height="7.78" style="fill: rgb(255, 255, 255); transform-origin: 260.96px 369.02px;" id="elnl6srw24o39" class="animable"></rect><g id="eltz2cevmyk0n"><rect x="244.51" y="390.75" width="16.18" height="9.64" style="fill: rgb(255, 255, 255); transform-origin: 252.6px 395.57px; transform: rotate(13.9deg);" class="animable"></rect></g><rect x="277.17" y="337" width="85.88" height="77.99" style="fill: rgb(250, 129, 47); transform-origin: 320.11px 375.995px;" id="eldeeckkojr0a" class="animable"></rect><g style="clip-path: url(&quot;#freepik--clip-path-12--inject-221&quot;); transform-origin: 320.11px 375.995px;" id="elazj33zxhr9m" class="animable"><g id="elpka8xnkd5eb"><rect x="277.17" y="337" width="85.88" height="77.99" style="opacity: 0.37; transform-origin: 320.11px 375.995px;" class="animable"></rect></g></g><rect x="277.17" y="337" width="61.2" height="77.99" style="fill: rgb(250, 129, 47); transform-origin: 307.77px 375.995px;" id="elcjp6zmmbuo4" class="animable"></rect><rect x="300.83" y="337" width="13.15" height="21.77" style="fill: rgb(255, 255, 255); transform-origin: 307.405px 347.885px;" id="elmc30n36gguo" class="animable"></rect><rect x="317.34" y="365.13" width="15.24" height="7.78" style="fill: rgb(255, 255, 255); transform-origin: 324.96px 369.02px;" id="elrmzt7qbwdg7" class="animable"></rect><g id="eljnzau7d9i7"><rect x="308.51" y="390.75" width="16.18" height="9.64" style="fill: rgb(255, 255, 255); transform-origin: 316.6px 395.57px; transform: rotate(13.9deg);" class="animable"></rect></g><rect x="71" y="94.34" width="300" height="14" style="fill: rgb(163, 163, 163); transform-origin: 221px 101.34px;" id="elxqilmabc49" class="animable"></rect><rect x="71" y="198.34" width="300" height="14" style="fill: rgb(163, 163, 163); transform-origin: 221px 205.34px;" id="elp15771r155l" class="animable"></rect><rect x="71" y="302.33" width="300" height="14" style="fill: rgb(163, 163, 163); transform-origin: 221px 309.33px;" id="elqdrkoh7443" class="animable"></rect><rect x="71" y="406.33" width="300" height="14" style="fill: rgb(163, 163, 163); transform-origin: 221px 413.33px;" id="el19sxuxyyvi8" class="animable"></rect><rect x="415" y="35.34" width="13" height="425" style="fill: rgb(122, 122, 122); transform-origin: 421.5px 247.84px;" id="elzeobuyiyot" class="animable"></rect><rect x="138" y="35.34" width="13" height="425" style="fill: rgb(122, 122, 122); transform-origin: 144.5px 247.84px;" id="elzu6xpy3kpd" class="animable"></rect><rect x="364" y="94.34" width="61" height="14" style="fill: rgb(117, 117, 117); transform-origin: 394.5px 101.34px;" id="elvp4nll4g1gb" class="animable"></rect><rect x="364" y="198.34" width="61" height="14" style="fill: rgb(117, 117, 117); transform-origin: 394.5px 205.34px;" id="elm6q27wbfwod" class="animable"></rect><rect x="364" y="302.33" width="61" height="14" style="fill: rgb(117, 117, 117); transform-origin: 394.5px 309.33px;" id="el5hqgb0sjwjd" class="animable"></rect><rect x="364" y="406.33" width="61" height="14" style="fill: rgb(117, 117, 117); transform-origin: 394.5px 413.33px;" id="el57yo9xr70ik" class="animable"></rect><rect x="70" y="35.34" width="13" height="425" style="fill: rgb(163, 163, 163); transform-origin: 76.5px 247.84px;" id="el1f45x92dr6h" class="animable"></rect><rect x="214" y="35.34" width="13" height="425" style="fill: rgb(163, 163, 163); transform-origin: 220.5px 247.84px;" id="elvk5nbbwyc5" class="animable"></rect><rect x="358" y="35.34" width="13" height="425" style="fill: rgb(163, 163, 163); transform-origin: 364.5px 247.84px;" id="elvrga0x7onjn" class="animable"></rect></g><g id="freepik--boxes-1--inject-221" class="animable" style="transform-origin: 307.87px 321.69px;"><rect x="242.71" y="183.05" width="102.02" height="92.64" style="fill: rgb(250, 129, 47); transform-origin: 293.72px 229.37px;" id="elxxs5auojbx9" class="animable"></rect><g style="clip-path: url(&quot;#freepik--clip-path-13--inject-221&quot;); transform-origin: 293.72px 229.37px;" id="el5ulagzraq8k" class="animable"><g id="elxv4vh54b8d"><rect x="242.71" y="183.05" width="102.02" height="92.64" style="opacity: 0.37; transform-origin: 293.72px 229.37px;" class="animable"></rect></g></g><rect x="242.71" y="183.05" width="102.02" height="92.64" style="fill: none; stroke: rgb(38, 50, 56); stroke-linecap: round; stroke-linejoin: round; transform-origin: 293.72px 229.37px;" id="el194tqjt6dgr" class="animable"></rect><rect x="242.71" y="183.05" width="72.71" height="92.64" style="fill: rgb(250, 129, 47); stroke: rgb(38, 50, 56); stroke-linecap: round; stroke-linejoin: round; transform-origin: 279.065px 229.37px;" id="elky0hnbyazh" class="animable"></rect><rect x="270.81" y="183.05" width="15.62" height="25.86" style="fill: rgb(255, 255, 255); stroke: rgb(38, 50, 56); stroke-linecap: round; stroke-linejoin: round; transform-origin: 278.62px 195.98px;" id="eld1513smnh7" class="animable"></rect><rect x="290.43" y="216.46" width="18.11" height="9.24" style="fill: rgb(255, 255, 255); transform-origin: 299.485px 221.08px;" id="elc9lntqv6hfk" class="animable"></rect><g id="elcfgvqrr1p4"><rect x="279.93" y="246.9" width="19.22" height="11.46" style="fill: rgb(255, 255, 255); transform-origin: 289.54px 252.63px; transform: rotate(13.9deg);" class="animable"></rect></g><rect x="181.35" y="367.69" width="102.02" height="92.64" style="fill: rgb(250, 129, 47); transform-origin: 232.36px 414.01px;" id="elo3u9h4do1d" class="animable"></rect><g style="clip-path: url(&quot;#freepik--clip-path-14--inject-221&quot;); transform-origin: 232.36px 414.01px;" id="elsn7bzfbsg67" class="animable"><g id="el7vg9lilmykg"><rect x="181.35" y="367.69" width="102.02" height="92.64" style="opacity: 0.37; transform-origin: 232.36px 414.01px;" class="animable"></rect></g></g><rect x="181.35" y="367.69" width="102.02" height="92.64" style="fill: none; stroke: rgb(38, 50, 56); stroke-linecap: round; stroke-linejoin: round; transform-origin: 232.36px 414.01px;" id="elx1md4cn305c" class="animable"></rect><rect x="181.35" y="367.69" width="72.71" height="92.64" style="fill: rgb(250, 129, 47); stroke: rgb(38, 50, 56); stroke-linecap: round; stroke-linejoin: round; transform-origin: 217.705px 414.01px;" id="el1qtylv1zc18" class="animable"></rect><rect x="209.45" y="367.69" width="15.62" height="25.86" style="fill: rgb(255, 255, 255); stroke: rgb(38, 50, 56); stroke-linecap: round; stroke-linejoin: round; transform-origin: 217.26px 380.62px;" id="elbjs1p3o0sjq" class="animable"></rect><rect x="188.42" y="443.61" width="18.11" height="9.24" style="fill: rgb(255, 255, 255); transform-origin: 197.475px 448.23px;" id="elxjbxbt61cq" class="animable"></rect><g id="elz6jr7e4e75n"><rect x="224.27" y="398.52" width="19.22" height="11.46" style="fill: rgb(255, 255, 255); transform-origin: 233.88px 404.25px; transform: rotate(13.9deg);" class="animable"></rect></g><rect x="256.37" y="367.69" width="102.02" height="92.64" style="fill: rgb(250, 129, 47); transform-origin: 307.38px 414.01px;" id="elxbb1nl2uq9k" class="animable"></rect><g style="clip-path: url(&quot;#freepik--clip-path-15--inject-221&quot;); transform-origin: 307.38px 414.01px;" id="elt02e3zxtvyr" class="animable"><g id="eldfr80nf1vmr"><rect x="256.37" y="367.69" width="102.02" height="92.64" style="opacity: 0.37; transform-origin: 307.38px 414.01px;" class="animable"></rect></g></g><rect x="256.37" y="367.69" width="102.02" height="92.64" style="fill: none; stroke: rgb(38, 50, 56); stroke-linecap: round; stroke-linejoin: round; transform-origin: 307.38px 414.01px;" id="eld15e4o85uk" class="animable"></rect><rect x="256.37" y="367.69" width="72.71" height="92.64" style="fill: rgb(250, 129, 47); stroke: rgb(38, 50, 56); stroke-linecap: round; stroke-linejoin: round; transform-origin: 292.725px 414.01px;" id="ell1vjxdo0dx" class="animable"></rect><rect x="284.47" y="367.69" width="15.62" height="25.86" style="fill: rgb(255, 255, 255); stroke: rgb(38, 50, 56); stroke-linecap: round; stroke-linejoin: round; transform-origin: 292.28px 380.62px;" id="el1fhg7j48eb4" class="animable"></rect><rect x="304.09" y="401.11" width="18.11" height="9.24" style="fill: rgb(255, 255, 255); transform-origin: 313.145px 405.73px;" id="elc2u86bmrcnh" class="animable"></rect><g id="elrrjnsah00f8"><rect x="261.59" y="392.24" width="19.22" height="11.46" style="fill: rgb(255, 255, 255); transform-origin: 271.2px 397.97px; transform: rotate(13.9deg);" class="animable"></rect></g><rect x="332.37" y="367.69" width="102.02" height="92.64" style="fill: rgb(250, 129, 47); transform-origin: 383.38px 414.01px;" id="elicshiex13b" class="animable"></rect><g style="clip-path: url(&quot;#freepik--clip-path-16--inject-221&quot;); transform-origin: 383.38px 414.01px;" id="el5wxgqbjdxdc" class="animable"><g id="elvcewizczlne"><rect x="332.37" y="367.69" width="102.02" height="92.64" style="opacity: 0.37; transform-origin: 383.38px 414.01px;" class="animable"></rect></g></g><rect x="332.37" y="367.69" width="102.02" height="92.64" style="fill: none; stroke: rgb(38, 50, 56); stroke-linecap: round; stroke-linejoin: round; transform-origin: 383.38px 414.01px;" id="el8ly5m9pw1dt" class="animable"></rect><rect x="332.37" y="367.69" width="72.71" height="92.64" style="fill: rgb(250, 129, 47); stroke: rgb(38, 50, 56); stroke-linecap: round; stroke-linejoin: round; transform-origin: 368.725px 414.01px;" id="elwe76o62uhte" class="animable"></rect><rect x="360.47" y="367.69" width="15.62" height="25.86" style="fill: rgb(255, 255, 255); stroke: rgb(38, 50, 56); stroke-linecap: round; stroke-linejoin: round; transform-origin: 368.28px 380.62px;" id="elcfv8d2miz6v" class="animable"></rect><rect x="380.09" y="401.11" width="18.11" height="9.24" style="fill: rgb(255, 255, 255); transform-origin: 389.145px 405.73px;" id="el7cshym7g6tq" class="animable"></rect><g id="eldybno7uhtmv"><rect x="337.59" y="392.24" width="19.22" height="11.46" style="fill: rgb(255, 255, 255); transform-origin: 347.2px 397.97px; transform: rotate(13.9deg);" class="animable"></rect></g><rect x="216.53" y="275.3" width="102.02" height="92.64" style="fill: rgb(250, 129, 47); transform-origin: 267.54px 321.62px;" id="elx5zx8xevap" class="animable"></rect><g style="clip-path: url(&quot;#freepik--clip-path-17--inject-221&quot;); transform-origin: 267.54px 321.62px;" id="el7nurkn64e2" class="animable"><g id="el7rfy944csiw"><rect x="216.53" y="275.3" width="102.02" height="92.64" style="opacity: 0.37; transform-origin: 267.54px 321.62px;" class="animable"></rect></g></g><rect x="216.53" y="275.3" width="102.02" height="92.64" style="fill: none; stroke: rgb(38, 50, 56); stroke-linecap: round; stroke-linejoin: round; transform-origin: 267.54px 321.62px;" id="elg5pl6yu6adi" class="animable"></rect><rect x="216.53" y="275.3" width="72.71" height="92.64" style="fill: rgb(250, 129, 47); stroke: rgb(38, 50, 56); stroke-linecap: round; stroke-linejoin: round; transform-origin: 252.885px 321.62px;" id="elkz22uoys2v" class="animable"></rect><rect x="244.62" y="275.3" width="15.62" height="25.86" style="fill: rgb(255, 255, 255); stroke: rgb(38, 50, 56); stroke-linecap: round; stroke-linejoin: round; transform-origin: 252.43px 288.23px;" id="el91jpsjyuhx" class="animable"></rect><rect x="264.25" y="308.72" width="18.11" height="9.24" style="fill: rgb(255, 255, 255); transform-origin: 273.305px 313.34px;" id="elggc0yg34i8r" class="animable"></rect><g id="elv5mgow5h8iq"><rect x="221.74" y="299.85" width="19.22" height="11.46" style="fill: rgb(255, 255, 255); transform-origin: 231.35px 305.58px; transform: rotate(13.9deg);" class="animable"></rect></g><rect x="297.53" y="275.3" width="102.02" height="92.64" style="fill: rgb(250, 129, 47); transform-origin: 348.54px 321.62px;" id="eldx64qe0r13d" class="animable"></rect><g style="clip-path: url(&quot;#freepik--clip-path-18--inject-221&quot;); transform-origin: 348.54px 321.62px;" id="ely3wsxlyx82" class="animable"><g id="el37fdttz8xk9"><rect x="297.53" y="275.3" width="102.02" height="92.64" style="opacity: 0.37; transform-origin: 348.54px 321.62px;" class="animable"></rect></g></g><rect x="297.53" y="275.3" width="102.02" height="92.64" style="fill: none; stroke: rgb(38, 50, 56); stroke-linecap: round; stroke-linejoin: round; transform-origin: 348.54px 321.62px;" id="elbdcvidzsut6" class="animable"></rect><rect x="297.53" y="275.3" width="72.71" height="92.64" style="fill: rgb(250, 129, 47); stroke: rgb(38, 50, 56); stroke-linecap: round; stroke-linejoin: round; transform-origin: 333.885px 321.62px;" id="el57coxp0zdm8" class="animable"></rect><rect x="325.62" y="275.3" width="15.62" height="25.86" style="fill: rgb(255, 255, 255); stroke: rgb(38, 50, 56); stroke-linecap: round; stroke-linejoin: round; transform-origin: 333.43px 288.23px;" id="el4wcouibj9r3" class="animable"></rect><rect x="345.25" y="308.72" width="18.11" height="9.24" style="fill: rgb(255, 255, 255); transform-origin: 354.305px 313.34px;" id="elwr6bf5unlj" class="animable"></rect><g id="el723geve5itt"><rect x="307.24" y="321.75" width="19.22" height="11.46" style="fill: rgb(255, 255, 255); transform-origin: 316.85px 327.48px; transform: rotate(13.9deg);" class="animable"></rect></g></g><g id="freepik--Floor--inject-221" class="animable" style="transform-origin: 257.4px 460.33px;"><line x1="38.4" y1="460.33" x2="476.4" y2="460.33" style="fill: none; stroke: rgb(38, 50, 56); stroke-linecap: round; stroke-linejoin: round; transform-origin: 257.4px 460.33px;" id="ell86pw544ng" class="animable"></line></g><g id="freepik--Character--inject-221" class="animable" style="transform-origin: 163.344px 264.756px;"><path d="M116.2,430.47S112,439,109,443.82s-8.57,11.16-8,16.74,6.38,6.18,12.36,3,11.36-9.56,13-14.35,6.78-8.77,6.78-14.15-.4-6-2.39-6.58S118.19,427.08,116.2,430.47Z" style="fill: rgb(255, 255, 255); stroke: rgb(38, 50, 56); stroke-linecap: round; stroke-linejoin: round; transform-origin: 117.05px 446.718px;" id="elm7ttkr8pmc" class="animable"></path><path d="M133.14,435.05c0-.79,0-1.47,0-2.07a37.73,37.73,0,0,1-2,4.86c-2.2,4.39-5.39,7-6.58,12.36s-8.77,11.56-15.35,13.15-8-3.78-8-3.78l-.24,0a6.85,6.85,0,0,0,0,1c.6,5.58,6.38,6.18,12.36,3s11.36-9.56,13-14.35S133.14,440.43,133.14,435.05Z" style="fill: rgb(38, 50, 56); stroke: rgb(38, 50, 56); stroke-linecap: round; stroke-linejoin: round; transform-origin: 117.046px 449.237px;" id="elwr08d5ei4l9" class="animable"></path><path d="M117,434.05s2.4,3.39,10.37,2.4" style="fill: none; stroke: rgb(38, 50, 56); stroke-linecap: round; stroke-linejoin: round; transform-origin: 122.185px 435.341px;" id="el2x7v2s1l6zu" class="animable"></path><path d="M116.8,436.85a11.49,11.49,0,0,0,8.37,2.39" style="fill: none; stroke: rgb(38, 50, 56); stroke-linecap: round; stroke-linejoin: round; transform-origin: 120.985px 438.08px;" id="eliwzdwop7e1" class="animable"></path><path d="M116,439.24a8.23,8.23,0,0,0,7,2.59" style="fill: none; stroke: rgb(38, 50, 56); stroke-linecap: round; stroke-linejoin: round; transform-origin: 119.5px 440.563px;" id="elb3v1v2ab7y" class="animable"></path><path d="M115.2,442.63s1.4,2.79,6.78,2.19" style="fill: none; stroke: rgb(38, 50, 56); stroke-linecap: round; stroke-linejoin: round; transform-origin: 118.59px 443.767px;" id="els1ks0g2hry" class="animable"></path><path d="M167.22,438a33.82,33.82,0,0,0,12,11.36c7.77,4.19,17.74,7,18.53,9a3.35,3.35,0,0,1-1.19,4.19c-1,.59-15.75,1-23.52-.4a55.57,55.57,0,0,0-13.35-1.2c-3.59,0-11.36,1-12.36-3.39s1.59-20.33,1.59-20.33S160.64,440.63,167.22,438Z" style="fill: rgb(255, 255, 255); stroke: rgb(38, 50, 56); stroke-miterlimit: 10; transform-origin: 172.578px 450.163px;" id="elkb5zip68zlp" class="animable"></path><path d="M196.52,462.56a3.28,3.28,0,0,0,1.44-3.18,65.67,65.67,0,0,1-9.41,1.58c-8,.8-19.93-1.79-29.3-2.19-6.88-.29-10.64-1.88-12.15-2.69a10.33,10.33,0,0,0,.19,1.49c1,4.39,8.77,3.39,12.36,3.39a55.57,55.57,0,0,1,13.35,1.2C180.77,463.55,195.52,463.15,196.52,462.56Z" style="fill: rgb(38, 50, 56); stroke: rgb(38, 50, 56); stroke-miterlimit: 10; transform-origin: 172.545px 459.591px;" id="el6m4lkl5i7m" class="animable"></path><path d="M170.21,442.63a12.65,12.65,0,0,0-3.59,4.58" style="fill: none; stroke: rgb(38, 50, 56); stroke-miterlimit: 10; transform-origin: 168.415px 444.92px;" id="elwrjf8ge21d" class="animable"></path><path d="M172.6,445.61s-2.59,2.2-2.59,3.59" style="fill: none; stroke: rgb(38, 50, 56); stroke-miterlimit: 10; transform-origin: 171.305px 447.405px;" id="eliv9jyb1hf2" class="animable"></path><path d="M175.19,447.61a16.52,16.52,0,0,0-1.59,3.59" style="fill: none; stroke: rgb(38, 50, 56); stroke-miterlimit: 10; transform-origin: 174.395px 449.405px;" id="ell2wwit0shv" class="animable"></path><path d="M179.18,449.4s-1.6,1.4-1.6,2.79" style="fill: none; stroke: rgb(38, 50, 56); stroke-miterlimit: 10; transform-origin: 178.38px 450.795px;" id="el8wr234843fc" class="animable"></path><path d="M110.93,226.33s-6.34,30.17-5.84,46.67,23,57.5,23,57.5-12,29.5-12.5,42.5.52,54.85.52,54.85,5,2.9,9.53,2.9,9.94-2.28,9.94-2.28l11.51-45,.5,54.5a21.48,21.48,0,0,0,11,3,19.4,19.4,0,0,0,11-3.5s8-57.5,9-67,7.5-38,8-40,10-33.5,10-59-7.33-40.83-7.33-40.83-25.67-5.67-44.67-6.17A203.9,203.9,0,0,0,110.93,226.33Z" style="fill: rgb(38, 50, 56); stroke: rgb(38, 50, 56); stroke-linecap: round; stroke-linejoin: round; transform-origin: 150.826px 332.681px;" id="el183adjhhrkv" class="animable"></path><path d="M150.59,376s13-37,13-46-8.5-65-8.5-65" style="fill: none; stroke: rgb(135, 135, 135); stroke-miterlimit: 10; transform-origin: 157.09px 320.5px;" id="eld1u5npsykz9" class="animable"></path><path d="M158.59,282s7.5-8.5,10-13.5" style="fill: none; stroke: rgb(135, 135, 135); stroke-miterlimit: 10; transform-origin: 163.59px 275.25px;" id="el3ummp65m79u" class="animable"></path><path d="M188.26,149.67s10.33,6,16,15,18,47,17.33,56.66-3.66,12.34-12.33,10.67-9.33-11.33-11.33-19.33S185.26,154,185.26,154l-.33-4.67Z" style="fill: rgb(255, 255, 255); stroke: rgb(38, 50, 56); stroke-linecap: round; stroke-linejoin: round; transform-origin: 203.273px 190.897px;" id="elkdsfyx86u2t" class="animable"></path><path d="M221.59,221.33c.34-4.92-2.69-17.2-6.5-29.25L194,195c1.77,8.2,3.29,15.09,3.93,17.64,2,8,2.66,17.66,11.33,19.33S220.93,231,221.59,221.33Z" style="fill: rgb(207, 207, 207); stroke: rgb(38, 50, 56); stroke-linecap: round; stroke-linejoin: round; transform-origin: 207.808px 212.259px;" id="ele3kkbgyqyl" class="animable"></path><path d="M119.26,146.67s-8,1.66-10,15.66,2.67,37,2.67,37l-1,27s33.33,8.67,47,8.67,31.33-4.33,31.33-4.33-7.33-67.34-8.67-73-7.33-11.34-12.33-15-17.67-3.34-25-1.34-17.67,6-17.67,6Z" style="fill: rgb(255, 255, 255); stroke: rgb(38, 50, 56); stroke-linecap: round; stroke-linejoin: round; transform-origin: 149.011px 187.43px;" id="elia891me5jjj" class="animable"></path><path d="M143.26,137.33s7,28.34,7.67,47.67-3,79.33-3,79.33-15.67.67-27-1.33-19.34-3-19.34-3l10-62.33s13.67,1,16.67-8.67-1-29-4.67-35-4.33-7.33-4.33-7.33Z" style="fill: rgb(250, 129, 47); stroke: rgb(38, 50, 56); stroke-linecap: round; stroke-linejoin: round; transform-origin: 126.301px 200.884px;" id="elesp86bzshzr" class="animable"></path><path d="M173.59,163.67s7.34,28,6.67,56-1,43-1,43,16-1,25-4.67c0,0-5-65.33-9.67-84.67s-6.33-23.66-6.33-23.66L169.59,142Z" style="fill: rgb(250, 129, 47); stroke: rgb(38, 50, 56); stroke-linecap: round; stroke-linejoin: round; transform-origin: 186.925px 202.335px;" id="el5qynvjyv2o4" class="animable"></path><path d="M150.44,131.89s-7,1.3-8.84,4.94,7.28,33.54,7.28,33.54l13.26-10.92,16.38,9.36s-3.12-22.62-9.88-30.42S150.44,131.89,150.44,131.89Z" style="fill: rgb(255, 255, 255); stroke: rgb(38, 50, 56); stroke-linecap: round; stroke-linejoin: round; transform-origin: 159.937px 151.089px;" id="el5e2xrx2cros" class="animable"></path><path d="M147.58,112.92s-.26,26.25,2.6,33,10.4,16.64,13.26,15.08,3.64-20.54,4.16-21.84,2.6-12,2.6-12S151.48,122,147.58,112.92Z" style="fill: rgb(207, 207, 207); stroke: rgb(38, 50, 56); stroke-linecap: round; stroke-linejoin: round; transform-origin: 158.887px 137.042px;" id="el7qp5fd50qx8" class="animable"></path><path d="M147.58,112.92s-.1,10.54.55,20a18.61,18.61,0,0,0,11.76,6.44,23.66,23.66,0,0,0,7.69-.1.19.19,0,0,1,0-.07c.52-1.3,2.6-12,2.6-12S151.48,122,147.58,112.92Z" style="fill: rgb(38, 50, 56); stroke: rgb(38, 50, 56); stroke-linecap: round; stroke-linejoin: round; transform-origin: 158.877px 126.273px;" id="elpp6xplwpnqj" class="animable"></path><path d="M176.83,203.24l-2,1.22-11.57-18.91a1.17,1.17,0,0,1,.39-1.6h0a1.16,1.16,0,0,1,1.6.38Z" style="fill: rgb(255, 255, 255); stroke: rgb(38, 50, 56); stroke-linecap: round; stroke-linejoin: round; transform-origin: 169.961px 194.118px;" id="elsfi7jonpiim" class="animable"></path><path d="M119.26,146.67s-7.67.66-12.33,9.66-12,51.34-13.34,63.67,6,11.33,7,11.33,54-17.66,54-17.66l18-2s-2,1.66-.33,1.66,5-3.33,6.33-5.33-4-13-6-14.33-20,12-20,12l-35,2.33,9-30.67" style="fill: rgb(255, 255, 255); stroke: rgb(38, 50, 56); stroke-linecap: round; stroke-linejoin: round; transform-origin: 136.114px 189.01px;" id="ell3lowzbmeef" class="animable"></path><path d="M172.59,193.67c-2-1.34-20,12-20,12l-35,2.33,2.22-7.56-22.39-5.05c-1.85,10.27-3.3,19.76-3.83,24.61-1.33,12.33,6,11.33,7,11.33s54-17.66,54-17.66l18-2s-2,1.66-.33,1.66,5-3.33,6.33-5.33S174.59,195,172.59,193.67Z" style="fill: rgb(207, 207, 207); stroke: rgb(38, 50, 56); stroke-linecap: round; stroke-linejoin: round; transform-origin: 136.115px 212.462px;" id="elx98j68d2onb" class="animable"></path><path d="M172.59,193.67c-2-1.34-20,12-20,12l-5.1.34a19.21,19.21,0,0,0,2.31,9.25l4.79-1.59,18-2s-2,1.66-.33,1.66,5-3.33,6.33-5.33S174.59,195,172.59,193.67Z" style="fill: rgb(102, 102, 102); stroke: rgb(38, 50, 56); stroke-linecap: round; stroke-linejoin: round; transform-origin: 163.145px 204.418px;" id="el2oiacmnapjk" class="animable"></path><polygon points="190.26 178 156.26 225.67 200.93 224 233.26 180 190.26 178" style="fill: rgb(38, 50, 56); stroke: rgb(38, 50, 56); stroke-linecap: round; stroke-linejoin: round; transform-origin: 194.76px 201.835px;" id="el0o8q8db681ag" class="animable"></polygon><polygon points="205.27 176.6 202.66 180.94 222.21 181.38 224.82 177.03 205.27 176.6" style="fill: rgb(38, 50, 56); stroke: rgb(38, 50, 56); stroke-linecap: round; stroke-linejoin: round; transform-origin: 213.74px 178.99px;" id="el288738g1vmj" class="animable"></polygon><path d="M218.48,205.05a19.87,19.87,0,0,1-4.76,1.1c-2,.09-3.84,1.1-3.84,2.11s3.57,1.19,6.13,1.19,4.57-.55,5-2.2S220.86,204.14,218.48,205.05Z" style="fill: rgb(102, 102, 102); stroke: rgb(38, 50, 56); stroke-linecap: round; stroke-linejoin: round; transform-origin: 215.51px 207.11px;" id="el263s66sedqs" class="animable"></path><path d="M220.78,200.58a25.31,25.31,0,0,1-6,1.4c-2.55.11-4.87,1.39-4.87,2.66s4.52,1.51,7.77,1.51,5.8-.69,6.38-2.78S223.8,199.42,220.78,200.58Z" style="fill: rgb(102, 102, 102); stroke: rgb(38, 50, 56); stroke-linecap: round; stroke-linejoin: round; transform-origin: 217.071px 203.186px;" id="ellzia3b8oqld" class="animable"></path><path d="M222.63,196.76a25.31,25.31,0,0,1-6,1.4c-2.56.11-4.88,1.39-4.88,2.66s4.53,1.51,7.78,1.51,5.8-.69,6.38-2.78S225.65,195.6,222.63,196.76Z" style="fill: rgb(102, 102, 102); stroke: rgb(38, 50, 56); stroke-linecap: round; stroke-linejoin: round; transform-origin: 218.916px 199.366px;" id="elzmef09mh0r" class="animable"></path><path d="M223.88,192.44a25.51,25.51,0,0,1-6,1.39c-2.55.11-4.87,1.39-4.87,2.67s4.52,1.51,7.77,1.51,5.8-.7,6.38-2.79S226.9,191.28,223.88,192.44Z" style="fill: rgb(102, 102, 102); stroke: rgb(38, 50, 56); stroke-linecap: round; stroke-linejoin: round; transform-origin: 220.171px 195.046px;" id="el9xj78wwghi" class="animable"></path><path d="M115.08,418.32s-.21,10.36.2,12,7.67,3.72,12.22,3.72,7.46-1,8.29-2.27,2.27-9.74,2.27-9.74S121.91,425.37,115.08,418.32Z" style="fill: rgb(102, 102, 102); stroke: rgb(38, 50, 56); stroke-linecap: round; stroke-linejoin: round; transform-origin: 126.543px 426.18px;" id="elhwf1imj1ym" class="animable"></path><path d="M138,104.6a19.5,19.5,0,0,0-19.23,3.64c-9.1,7.8-1,21.84,8.58,23.4s15.85-2.86,17.41-9.88S143.74,104.34,138,104.6Z" style="fill: rgb(38, 50, 56); stroke: rgb(38, 50, 56); stroke-linecap: round; stroke-linejoin: round; transform-origin: 130.002px 117.723px;" id="elk8mm75u2ggm" class="animable"></path><path d="M184,102.26s-1.3,13-3.9,22.1-9.36,12.48-19,11.18-15.08-9.1-18.2-18.2-3.38-21.58-3.38-21.58Z" style="fill: rgb(207, 207, 207); stroke: rgb(38, 50, 56); stroke-linecap: round; stroke-linejoin: round; transform-origin: 161.76px 115.784px;" id="elhgvvrppfq4l" class="animable"></path><path d="M140.88,102S144,104.86,151,99.92s3.64-7.28,3.64-7.28l-16.64,1Z" style="fill: rgb(38, 50, 56); stroke: rgb(38, 50, 56); stroke-linecap: round; stroke-linejoin: round; transform-origin: 146.723px 97.7317px;" id="el09au6ndmujgj" class="animable"></path><path d="M173.64,105.38s-1.3,3.9-.52,5.2,2.86,3.12.52,5.2a3.77,3.77,0,0,1-6-1" style="fill: none; stroke: rgb(38, 50, 56); stroke-linecap: round; stroke-linejoin: round; transform-origin: 171.179px 111.116px;" id="eljkhxz7pawe" class="animable"></path><path d="M159.14,117s4,5.19,11.58,2.8" style="fill: none; stroke: rgb(38, 50, 56); stroke-linecap: round; stroke-linejoin: round; transform-origin: 164.93px 118.715px;" id="elef32y36vh0i" class="animable"></path><path d="M164.8,106.94c0,1.44-.58,2.6-1.3,2.6s-1.3-1.16-1.3-2.6.58-2.6,1.3-2.6S164.8,105.5,164.8,106.94Z" style="fill: rgb(38, 50, 56); transform-origin: 163.5px 106.94px;" id="elnb5ph81hzk" class="animable"></path><path d="M179.1,109c0,1.44-.58,2.6-1.3,2.6s-1.3-1.16-1.3-2.6.58-2.6,1.3-2.6S179.1,107.58,179.1,109Z" style="fill: rgb(38, 50, 56); transform-origin: 177.8px 109px;" id="elik3ru6gw4k" class="animable"></path><path d="M159.34,101.22s3.64-4.16,8.32,0" style="fill: none; stroke: rgb(38, 50, 56); stroke-linecap: round; stroke-linejoin: round; transform-origin: 163.5px 100.296px;" id="elo2l912py7v" class="animable"></path><path d="M176,103.3a4.33,4.33,0,0,1,5.46.26" style="fill: none; stroke: rgb(38, 50, 56); stroke-linecap: round; stroke-linejoin: round; transform-origin: 178.73px 103.007px;" id="elxanbumy3y5" class="animable"></path><path d="M137,96.8l48.36,5.2s-.52-24.44-.78-28.59-19.5-9.88-27-9.36-16.9,4.94-18.46,7S137,96.8,137,96.8Z" style="fill: rgb(250, 129, 47); stroke: rgb(38, 50, 56); stroke-linecap: round; stroke-linejoin: round; transform-origin: 161.18px 83.0085px;" id="eloclrc9x28y" class="animable"></path><path d="M157.78,99.4l42.89,5.72s-11.43-9.88-20.53-10.66S157.78,99.4,157.78,99.4Z" style="fill: rgb(250, 129, 47); stroke: rgb(38, 50, 56); stroke-linecap: round; stroke-linejoin: round; transform-origin: 179.225px 99.7535px;" id="elvf4lq4cc4fc" class="animable"></path><path d="M142.7,103.82s-1-8.06-5.46-8.06-2.34,6.5-1.82,10.66,5.46,5.2,7.28,3.64" style="fill: rgb(207, 207, 207); stroke: rgb(38, 50, 56); stroke-linecap: round; stroke-linejoin: round; transform-origin: 138.58px 103.254px;" id="elmrxvhvb1ys" class="animable"></path><path d="M147.18,429.09l.62,9.74s2.75,2.06,10.79,2.17,11-3.5,11-3.5L171.2,427S156.29,434.06,147.18,429.09Z" style="fill: rgb(102, 102, 102); stroke: rgb(38, 50, 56); stroke-linecap: round; stroke-linejoin: round; transform-origin: 159.19px 434.001px;" id="eloo43y1n5qyj" class="animable"></path></g><defs>     <filter id="active" height="200%">         <feMorphology in="SourceAlpha" result="DILATED" operator="dilate" radius="2"></feMorphology>                <feFlood flood-color="#32DFEC" flood-opacity="1" result="PINK"></feFlood>        <feComposite in="PINK" in2="DILATED" operator="in" result="OUTLINE"></feComposite>        <feMerge>            <feMergeNode in="OUTLINE"></feMergeNode>            <feMergeNode in="SourceGraphic"></feMergeNode>        </feMerge>    </filter>    <filter id="hover" height="200%">        <feMorphology in="SourceAlpha" result="DILATED" operator="dilate" radius="2"></feMorphology>                <feFlood flood-color="#ff0000" flood-opacity="0.5" result="PINK"></feFlood>        <feComposite in="PINK" in2="DILATED" operator="in" result="OUTLINE"></feComposite>        <feMerge>            <feMergeNode in="OUTLINE"></feMergeNode>            <feMergeNode in="SourceGraphic"></feMergeNode>        </feMerge>            <feColorMatrix type="matrix" values="0   0   0   0   0                0   1   0   0   0                0   0   0   0   0                0   0   0   1   0 "></feColorMatrix>    </filter></defs><defs><clipPath id="freepik--clip-path--inject-221"><rect x="85.17" y="123" width="85.88" height="77.99" style="fill:#FA812F"></rect></clipPath><clipPath id="freepik--clip-path-2--inject-221"><rect x="149.17" y="123" width="85.88" height="77.99" style="fill:#FA812F"></rect></clipPath><clipPath id="freepik--clip-path-3--inject-221"><rect x="213.17" y="123" width="85.88" height="77.99" style="fill:#FA812F"></rect></clipPath><clipPath id="freepik--clip-path-4--inject-221"><rect x="277.17" y="123" width="85.88" height="77.99" style="fill:#FA812F"></rect></clipPath><clipPath id="freepik--clip-path-5--inject-221"><rect x="85.17" y="230" width="85.88" height="77.99" style="fill:#FA812F"></rect></clipPath><clipPath id="freepik--clip-path-6--inject-221"><rect x="149.17" y="230" width="85.88" height="77.99" style="fill:#FA812F"></rect></clipPath><clipPath id="freepik--clip-path-7--inject-221"><rect x="213.17" y="230" width="85.88" height="77.99" style="fill:#FA812F"></rect></clipPath><clipPath id="freepik--clip-path-8--inject-221"><rect x="277.17" y="230" width="85.88" height="77.99" style="fill:#FA812F"></rect></clipPath><clipPath id="freepik--clip-path-9--inject-221"><rect x="85.17" y="337" width="85.88" height="77.99" style="fill:#FA812F"></rect></clipPath><clipPath id="freepik--clip-path-10--inject-221"><rect x="149.17" y="337" width="85.88" height="77.99" style="fill:#FA812F"></rect></clipPath><clipPath id="freepik--clip-path-11--inject-221"><rect x="213.17" y="337" width="85.88" height="77.99" style="fill:#FA812F"></rect></clipPath><clipPath id="freepik--clip-path-12--inject-221"><rect x="277.17" y="337" width="85.88" height="77.99" style="fill:#FA812F"></rect></clipPath><clipPath id="freepik--clip-path-13--inject-221"><rect x="242.71" y="183.05" width="102.02" height="92.64" style="fill:#FA812F;stroke:#263238;stroke-linecap:round;stroke-linejoin:round"></rect></clipPath><clipPath id="freepik--clip-path-14--inject-221"><rect x="181.35" y="367.69" width="102.02" height="92.64" style="fill:#FA812F;stroke:#263238;stroke-linecap:round;stroke-linejoin:round"></rect></clipPath><clipPath id="freepik--clip-path-15--inject-221"><rect x="256.37" y="367.69" width="102.02" height="92.64" style="fill:#FA812F;stroke:#263238;stroke-linecap:round;stroke-linejoin:round"></rect></clipPath><clipPath id="freepik--clip-path-16--inject-221"><rect x="332.37" y="367.69" width="102.02" height="92.64" style="fill:#FA812F;stroke:#263238;stroke-linecap:round;stroke-linejoin:round"></rect></clipPath><clipPath id="freepik--clip-path-17--inject-221"><rect x="216.53" y="275.3" width="102.02" height="92.64" style="fill:#FA812F;stroke:#263238;stroke-linecap:round;stroke-linejoin:round"></rect></clipPath><clipPath id="freepik--clip-path-18--inject-221"><rect x="297.53" y="275.3" width="102.02" height="92.64" style="fill:#FA812F;stroke:#263238;stroke-linecap:round;stroke-linejoin:round"></rect></clipPath></defs></svg>